<svg width="48" height="48" viewBox="0 0 48 48" fill="none" xmlns="http://www.w3.org/2000/svg">
<rect x="0.5" y="0.5" width="47" height="47" rx="23.5" fill="#0E76A8"/>
<rect x="0.5" y="0.5" width="47" height="47" rx="23.5" stroke="#0E76A8"/>
<path d="M20.125 30V20.6562H17.2188V30H20.125ZM18.6562 19.4062C19.5938 19.4062 20.3438 18.625 20.3438 17.6875C20.3438 16.7812 19.5938 16.0312 18.6562 16.0312C17.75 16.0312 17 16.7812 17 17.6875C17 18.625 17.75 19.4062 18.6562 19.4062ZM30.9688 30H31V24.875C31 22.375 30.4375 20.4375 27.5 20.4375C26.0938 20.4375 25.1562 21.2188 24.75 21.9375H24.7188V20.6562H21.9375V30H24.8438V25.375C24.8438 24.1562 25.0625 23 26.5625 23C28.0625 23 28.0938 24.375 28.0938 25.4688V30H30.9688Z" fill="white"/>
</svg>
